# xmcd
#
# Track frame offsets:
#	150
#	10713
#	25311
#	37689
#	52041
#	63057
#	85443
#	103474
#	122495
#	141809
#	181541
#	193823
#	206921
#	220223
#	239141
#	254027
#	277235
#	303029
#
# Disc length: 4284 seconds
#
# Revision: 0
# Processed by: cddbd v1.5.1PL2 Copyright (c) Steve Scherf et al.
# Submitted via: dBpowerAMP V4.0
#
DISCID=0b10ba12
DTITLE=Louis Armstrong - The Wonderful World of Louis Armstrong
DYEAR=2005
DGENRE=Blues
TTITLE0=What a Wonderful World
TTITLE1=We Have All The Time In The World
TTITLE2=Jeepers Creepers
TTITLE3=I'm In The Mood For Love
TTITLE4=Hello Dolly
TTITLE5=Summertime
TTITLE6=Makin' Whoopee
TTITLE7=Let's Call The Whole Thing Off
TTITLE8=Stormy Weather
TTITLE9=Let's Do It (Let's Fall in Love)
TTITLE10=When The Saints Go Marching In
TTITLE11=Blueberry Hill
TTITLE12=Ain't Misbehavin'
TTITLE13=Top Hat, White Tie and Tails
TTITLE14=Dream a Little Dream of Me
TTITLE15=Tenderly
TTITLE16=Baby It's Cold Outside
TTITLE17=When You're Smiling (The Whole World Smiles With You)
EXTD=
EXTT0=
EXTT1=
EXTT2=
EXTT3=
EXTT4=
EXTT5=
EXTT6=
EXTT7=
EXTT8=
EXTT9=
EXTT10=
EXTT11=
EXTT12=
EXTT13=
EXTT14=
EXTT15=
EXTT16=
EXTT17=
PLAYORDER=
